<svg xmlns="http://www.w3.org/2000/svg" viewBox="0 0 900 900" role="img" aria-label="iPad Air">
  <defs>
    <radialGradient id="glow" cx=".5" cy=".4" r=".55"><stop offset="0" stop-color="#7b6cc4" stop-opacity=".42"/><stop offset="1" stop-color="#7b6cc4" stop-opacity="0"/></radialGradient>
    <linearGradient id="alu" x1="0" y1="0" x2="1" y2="1"><stop offset="0" stop-color="#eef1f4"/><stop offset=".5" stop-color="#c8ced6"/><stop offset="1" stop-color="#aab2bc"/></linearGradient>
    <linearGradient id="scr" x1="0" y1="0" x2="0" y2="1"><stop offset="0" stop-color="#12161d"/><stop offset="1" stop-color="#05070a"/></linearGradient>
    <linearGradient id="gloss" x1="0" y1="0" x2="1" y2="1"><stop offset="0" stop-color="#fff" stop-opacity=".18"/><stop offset=".42" stop-color="#fff" stop-opacity="0"/></linearGradient>
    <radialGradient id="p1" cx=".3" cy=".25" r=".55"><stop offset="0" stop-color="#7b6cff" stop-opacity=".9"/><stop offset="1" stop-color="#7b6cff" stop-opacity="0"/></radialGradient>
    <radialGradient id="p2" cx=".75" cy=".6" r=".55"><stop offset="0" stop-color="#1fc9a6" stop-opacity=".8"/><stop offset="1" stop-color="#1fc9a6" stop-opacity="0"/></radialGradient>
    <radialGradient id="p3" cx=".5" cy=".9" r=".6"><stop offset="0" stop-color="#ff7a59" stop-opacity=".8"/><stop offset="1" stop-color="#ff7a59" stop-opacity="0"/></radialGradient>
    <radialGradient id="floor" cx=".5" cy=".5" r=".5"><stop offset="0" stop-color="#000" stop-opacity=".24"/><stop offset="1" stop-color="#000" stop-opacity="0"/></radialGradient>
    <clipPath id="sc"><rect x="258" y="178" width="384" height="544" rx="20"/></clipPath>
  </defs>
  <rect x="150" y="110" width="600" height="690" fill="url(#glow)"/>
  <ellipse cx="450" cy="780" rx="200" ry="30" fill="url(#floor)"/>
  <rect x="230" y="150" width="440" height="600" rx="44" fill="url(#alu)"/>
  <circle cx="450" cy="166" r="6" fill="#2a2f36"/>
  <rect x="258" y="178" width="384" height="544" rx="20" fill="url(#scr)"/>
  <g clip-path="url(#sc)">
    <rect x="258" y="178" width="384" height="544" fill="#06080c"/>
    <circle cx="350" cy="320" r="200" fill="url(#p1)"/>
    <circle cx="560" cy="470" r="210" fill="url(#p2)"/>
    <circle cx="430" cy="640" r="220" fill="url(#p3)"/>
    <rect x="258" y="178" width="384" height="544" fill="url(#gloss)"/>
  </g>
</svg>
